<mxfile host="Electron" modified="2023-09-04T23:57:50.367Z" agent="Mozilla/5.0 (Windows NT 10.0; Win64; x64) AppleWebKit/537.36 (KHTML, like Gecko) draw.io/21.6.8 Chrome/114.0.5735.289 Electron/25.5.0 Safari/537.36" etag="gok84Kex9tx6zm-4wIfH" version="21.6.8" type="device">
  <diagram id="C5RBs43oDa-KdzZeNtuy" name="Page-1">
    <mxGraphModel dx="1219" dy="769" grid="1" gridSize="10" guides="1" tooltips="1" connect="1" arrows="1" fold="1" page="1" pageScale="1" pageWidth="827" pageHeight="1169" math="0" shadow="0">
      <root>
        <mxCell id="WIyWlLk6GJQsqaUBKTNV-0" />
        <mxCell id="WIyWlLk6GJQsqaUBKTNV-1" parent="WIyWlLk6GJQsqaUBKTNV-0" />
        <mxCell id="LES1Whu-kChFvFYX6Mq4-0" value="Almoxarifado" style="swimlane;fontStyle=1;align=center;verticalAlign=top;childLayout=stackLayout;horizontal=1;startSize=26;horizontalStack=0;resizeParent=1;resizeParentMax=0;resizeLast=0;collapsible=1;marginBottom=0;whiteSpace=wrap;html=1;labelBackgroundColor=none;" parent="WIyWlLk6GJQsqaUBKTNV-1" vertex="1">
          <mxGeometry x="320" y="290" width="210" height="240" as="geometry" />
        </mxCell>
        <mxCell id="LES1Whu-kChFvFYX6Mq4-1" value="- itens: List&amp;lt;itens&amp;gt;&lt;br&gt;- usuário: List&amp;lt;usuario&amp;gt;&lt;br&gt;- setor: List&amp;lt;setor&amp;gt;&lt;br&gt;- fornecedor: List&amp;lt;fornecedor&amp;gt;" style="text;strokeColor=none;fillColor=none;align=left;verticalAlign=top;spacingLeft=4;spacingRight=4;overflow=hidden;rotatable=0;points=[[0,0.5],[1,0.5]];portConstraint=eastwest;whiteSpace=wrap;html=1;labelBackgroundColor=none;" parent="LES1Whu-kChFvFYX6Mq4-0" vertex="1">
          <mxGeometry y="26" width="210" height="74" as="geometry" />
        </mxCell>
        <mxCell id="LES1Whu-kChFvFYX6Mq4-2" value="" style="line;strokeWidth=1;fillColor=none;align=left;verticalAlign=middle;spacingTop=-1;spacingLeft=3;spacingRight=3;rotatable=0;labelPosition=right;points=[];portConstraint=eastwest;labelBackgroundColor=none;" parent="LES1Whu-kChFvFYX6Mq4-0" vertex="1">
          <mxGeometry y="100" width="210" height="8" as="geometry" />
        </mxCell>
        <mxCell id="LES1Whu-kChFvFYX6Mq4-3" value="+ add Item(Item)&lt;br&gt;+ add Usuario(Usuario)&lt;br&gt;+ buscar ItemNome(String)&lt;br&gt;+ buscar ItemID(int)&lt;br&gt;+ buscar RequisicaoUsuario(String)&lt;br&gt;+ buscar RequisicaoId(int)&lt;br&gt;+ bucar Fornecedor(String)&lt;br&gt;+ buscar FornecedorId" style="text;strokeColor=none;fillColor=none;align=left;verticalAlign=top;spacingLeft=4;spacingRight=4;overflow=hidden;rotatable=0;points=[[0,0.5],[1,0.5]];portConstraint=eastwest;whiteSpace=wrap;html=1;labelBackgroundColor=none;" parent="LES1Whu-kChFvFYX6Mq4-0" vertex="1">
          <mxGeometry y="108" width="210" height="132" as="geometry" />
        </mxCell>
        <mxCell id="LES1Whu-kChFvFYX6Mq4-50" style="edgeStyle=orthogonalEdgeStyle;rounded=0;orthogonalLoop=1;jettySize=auto;html=1;exitX=0.5;exitY=0;exitDx=0;exitDy=0;entryX=0.5;entryY=1;entryDx=0;entryDy=0;labelBackgroundColor=none;fontColor=default;" parent="WIyWlLk6GJQsqaUBKTNV-1" source="LES1Whu-kChFvFYX6Mq4-12" target="LES1Whu-kChFvFYX6Mq4-27" edge="1">
          <mxGeometry relative="1" as="geometry" />
        </mxCell>
        <mxCell id="LES1Whu-kChFvFYX6Mq4-12" value="Itens" style="swimlane;fontStyle=1;align=center;verticalAlign=top;childLayout=stackLayout;horizontal=1;startSize=26;horizontalStack=0;resizeParent=1;resizeParentMax=0;resizeLast=0;collapsible=1;marginBottom=0;whiteSpace=wrap;html=1;labelBackgroundColor=none;" parent="WIyWlLk6GJQsqaUBKTNV-1" vertex="1">
          <mxGeometry x="50" y="300" width="180" height="240" as="geometry" />
        </mxCell>
        <mxCell id="LES1Whu-kChFvFYX6Mq4-13" value="- nome: String&lt;br&gt;- id: int&lt;br&gt;- fornecedor: Fornecedor&lt;br&gt;- localização: int" style="text;strokeColor=none;fillColor=none;align=left;verticalAlign=top;spacingLeft=4;spacingRight=4;overflow=hidden;rotatable=0;points=[[0,0.5],[1,0.5]];portConstraint=eastwest;whiteSpace=wrap;html=1;labelBackgroundColor=none;" parent="LES1Whu-kChFvFYX6Mq4-12" vertex="1">
          <mxGeometry y="26" width="180" height="74" as="geometry" />
        </mxCell>
        <mxCell id="LES1Whu-kChFvFYX6Mq4-14" value="" style="line;strokeWidth=1;fillColor=none;align=left;verticalAlign=middle;spacingTop=-1;spacingLeft=3;spacingRight=3;rotatable=0;labelPosition=right;points=[];portConstraint=eastwest;labelBackgroundColor=none;" parent="LES1Whu-kChFvFYX6Mq4-12" vertex="1">
          <mxGeometry y="100" width="180" height="8" as="geometry" />
        </mxCell>
        <mxCell id="LES1Whu-kChFvFYX6Mq4-15" value="+ get itemNome(): String&lt;br style=&quot;border-color: var(--border-color);&quot;&gt;+ set itemNome(String)&lt;br&gt;+ get fornecedor(): Fornecedor&lt;br style=&quot;border-color: var(--border-color);&quot;&gt;+ set fornecedor(Fornecedor)&lt;br&gt;+ get localização(): int&lt;br style=&quot;border-color: var(--border-color);&quot;&gt;+ set localização(int)&lt;br&gt;+ get itemId(): int&lt;br&gt;+ set itemId(int)" style="text;strokeColor=none;fillColor=none;align=left;verticalAlign=top;spacingLeft=4;spacingRight=4;overflow=hidden;rotatable=0;points=[[0,0.5],[1,0.5]];portConstraint=eastwest;whiteSpace=wrap;html=1;labelBackgroundColor=none;" parent="LES1Whu-kChFvFYX6Mq4-12" vertex="1">
          <mxGeometry y="108" width="180" height="132" as="geometry" />
        </mxCell>
        <mxCell id="LES1Whu-kChFvFYX6Mq4-53" style="edgeStyle=orthogonalEdgeStyle;rounded=0;orthogonalLoop=1;jettySize=auto;html=1;exitX=0.5;exitY=0;exitDx=0;exitDy=0;entryX=0.5;entryY=1;entryDx=0;entryDy=0;entryPerimeter=0;labelBackgroundColor=none;fontColor=default;" parent="WIyWlLk6GJQsqaUBKTNV-1" source="LES1Whu-kChFvFYX6Mq4-16" target="LES1Whu-kChFvFYX6Mq4-34" edge="1">
          <mxGeometry relative="1" as="geometry" />
        </mxCell>
        <mxCell id="LES1Whu-kChFvFYX6Mq4-16" value="Usuario" style="swimlane;fontStyle=1;align=center;verticalAlign=top;childLayout=stackLayout;horizontal=1;startSize=30;horizontalStack=0;resizeParent=1;resizeParentMax=0;resizeLast=0;collapsible=1;marginBottom=0;whiteSpace=wrap;html=1;labelBackgroundColor=none;" parent="WIyWlLk6GJQsqaUBKTNV-1" vertex="1">
          <mxGeometry x="590" y="290" width="170" height="190" as="geometry" />
        </mxCell>
        <mxCell id="LES1Whu-kChFvFYX6Mq4-17" value="- nome: String&lt;br&gt;- setor: Setor&lt;br&gt;- id: int" style="text;strokeColor=none;fillColor=none;align=left;verticalAlign=top;spacingLeft=4;spacingRight=4;overflow=hidden;rotatable=0;points=[[0,0.5],[1,0.5]];portConstraint=eastwest;whiteSpace=wrap;html=1;labelBackgroundColor=none;" parent="LES1Whu-kChFvFYX6Mq4-16" vertex="1">
          <mxGeometry y="30" width="170" height="50" as="geometry" />
        </mxCell>
        <mxCell id="LES1Whu-kChFvFYX6Mq4-18" value="" style="line;strokeWidth=1;fillColor=none;align=left;verticalAlign=middle;spacingTop=-1;spacingLeft=3;spacingRight=3;rotatable=0;labelPosition=right;points=[];portConstraint=eastwest;labelBackgroundColor=none;" parent="LES1Whu-kChFvFYX6Mq4-16" vertex="1">
          <mxGeometry y="80" width="170" height="8" as="geometry" />
        </mxCell>
        <mxCell id="LES1Whu-kChFvFYX6Mq4-19" value="+ get usuarioNome(): String&lt;br&gt;+ set usuarioNome(String)&lt;br&gt;+ get setorUsuario(): Setor&lt;br style=&quot;border-color: var(--border-color);&quot;&gt;+ set setorUsuario (Setor)&lt;br&gt;+ get usuarioId(): int&lt;br style=&quot;border-color: var(--border-color);&quot;&gt;+ set usuarioId(int)" style="text;strokeColor=none;fillColor=none;align=left;verticalAlign=top;spacingLeft=4;spacingRight=4;overflow=hidden;rotatable=0;points=[[0,0.5],[1,0.5]];portConstraint=eastwest;whiteSpace=wrap;html=1;labelBackgroundColor=none;" parent="LES1Whu-kChFvFYX6Mq4-16" vertex="1">
          <mxGeometry y="88" width="170" height="102" as="geometry" />
        </mxCell>
        <mxCell id="LES1Whu-kChFvFYX6Mq4-27" value="Fornecedor" style="swimlane;fontStyle=1;align=center;verticalAlign=top;childLayout=stackLayout;horizontal=1;startSize=26;horizontalStack=0;resizeParent=1;resizeParentMax=0;resizeLast=0;collapsible=1;marginBottom=0;whiteSpace=wrap;html=1;labelBackgroundColor=none;" parent="WIyWlLk6GJQsqaUBKTNV-1" vertex="1">
          <mxGeometry x="50" y="80" width="180" height="150" as="geometry" />
        </mxCell>
        <mxCell id="LES1Whu-kChFvFYX6Mq4-28" value="- nome: String&lt;br&gt;- id: int" style="text;strokeColor=none;fillColor=none;align=left;verticalAlign=top;spacingLeft=4;spacingRight=4;overflow=hidden;rotatable=0;points=[[0,0.5],[1,0.5]];portConstraint=eastwest;whiteSpace=wrap;html=1;labelBackgroundColor=none;" parent="LES1Whu-kChFvFYX6Mq4-27" vertex="1">
          <mxGeometry y="26" width="180" height="44" as="geometry" />
        </mxCell>
        <mxCell id="LES1Whu-kChFvFYX6Mq4-29" value="" style="line;strokeWidth=1;fillColor=none;align=left;verticalAlign=middle;spacingTop=-1;spacingLeft=3;spacingRight=3;rotatable=0;labelPosition=right;points=[];portConstraint=eastwest;labelBackgroundColor=none;" parent="LES1Whu-kChFvFYX6Mq4-27" vertex="1">
          <mxGeometry y="70" width="180" height="8" as="geometry" />
        </mxCell>
        <mxCell id="LES1Whu-kChFvFYX6Mq4-30" value="+ get nomeFornecedor(): String&lt;br&gt;+ set nomeFornecedor(String)&lt;br&gt;+ get fornecedorId(): String&lt;br&gt;+ set fornecedorId(String)" style="text;strokeColor=none;fillColor=none;align=left;verticalAlign=top;spacingLeft=4;spacingRight=4;overflow=hidden;rotatable=0;points=[[0,0.5],[1,0.5]];portConstraint=eastwest;whiteSpace=wrap;html=1;labelBackgroundColor=none;" parent="LES1Whu-kChFvFYX6Mq4-27" vertex="1">
          <mxGeometry y="78" width="180" height="72" as="geometry" />
        </mxCell>
        <mxCell id="LES1Whu-kChFvFYX6Mq4-31" value="Setor" style="swimlane;fontStyle=1;align=center;verticalAlign=top;childLayout=stackLayout;horizontal=1;startSize=26;horizontalStack=0;resizeParent=1;resizeParentMax=0;resizeLast=0;collapsible=1;marginBottom=0;whiteSpace=wrap;html=1;labelBackgroundColor=none;" parent="WIyWlLk6GJQsqaUBKTNV-1" vertex="1">
          <mxGeometry x="595" y="80" width="160" height="150" as="geometry" />
        </mxCell>
        <mxCell id="LES1Whu-kChFvFYX6Mq4-32" value="- id: int&lt;br&gt;- nome : String" style="text;strokeColor=none;fillColor=none;align=left;verticalAlign=top;spacingLeft=4;spacingRight=4;overflow=hidden;rotatable=0;points=[[0,0.5],[1,0.5]];portConstraint=eastwest;whiteSpace=wrap;html=1;labelBackgroundColor=none;" parent="LES1Whu-kChFvFYX6Mq4-31" vertex="1">
          <mxGeometry y="26" width="160" height="44" as="geometry" />
        </mxCell>
        <mxCell id="LES1Whu-kChFvFYX6Mq4-33" value="" style="line;strokeWidth=1;fillColor=none;align=left;verticalAlign=middle;spacingTop=-1;spacingLeft=3;spacingRight=3;rotatable=0;labelPosition=right;points=[];portConstraint=eastwest;labelBackgroundColor=none;" parent="LES1Whu-kChFvFYX6Mq4-31" vertex="1">
          <mxGeometry y="70" width="160" height="8" as="geometry" />
        </mxCell>
        <mxCell id="LES1Whu-kChFvFYX6Mq4-34" value="+ get idSetor(): int&lt;br style=&quot;border-color: var(--border-color);&quot;&gt;+ set idSetor(int)&lt;br&gt;+ get nomeSetor(): String&lt;br style=&quot;border-color: var(--border-color);&quot;&gt;+ set nomeSetor(String)" style="text;strokeColor=none;fillColor=none;align=left;verticalAlign=top;spacingLeft=4;spacingRight=4;overflow=hidden;rotatable=0;points=[[0,0.5],[1,0.5]];portConstraint=eastwest;whiteSpace=wrap;html=1;labelBackgroundColor=none;" parent="LES1Whu-kChFvFYX6Mq4-31" vertex="1">
          <mxGeometry y="78" width="160" height="72" as="geometry" />
        </mxCell>
        <mxCell id="LES1Whu-kChFvFYX6Mq4-48" style="edgeStyle=orthogonalEdgeStyle;rounded=0;orthogonalLoop=1;jettySize=auto;html=1;exitX=0;exitY=0.5;exitDx=0;exitDy=0;entryX=1.012;entryY=0.053;entryDx=0;entryDy=0;entryPerimeter=0;labelBackgroundColor=none;fontColor=default;" parent="WIyWlLk6GJQsqaUBKTNV-1" source="LES1Whu-kChFvFYX6Mq4-1" target="LES1Whu-kChFvFYX6Mq4-12" edge="1">
          <mxGeometry relative="1" as="geometry" />
        </mxCell>
        <mxCell id="LES1Whu-kChFvFYX6Mq4-51" style="edgeStyle=orthogonalEdgeStyle;rounded=0;orthogonalLoop=1;jettySize=auto;html=1;exitX=1;exitY=0.5;exitDx=0;exitDy=0;entryX=-0.005;entryY=0.072;entryDx=0;entryDy=0;entryPerimeter=0;labelBackgroundColor=none;fontColor=default;" parent="WIyWlLk6GJQsqaUBKTNV-1" source="LES1Whu-kChFvFYX6Mq4-1" target="LES1Whu-kChFvFYX6Mq4-16" edge="1">
          <mxGeometry relative="1" as="geometry" />
        </mxCell>
      </root>
    </mxGraphModel>
  </diagram>
</mxfile>
